<?xml version="1.0" encoding="utf-8"?>
<!-- Generator: Adobe Illustrator 16.0.0, SVG Export Plug-In . SVG Version: 6.00 Build 0)  -->
<!DOCTYPE svg PUBLIC "-//W3C//DTD SVG 1.1//EN" "http://www.w3.org/Graphics/SVG/1.1/DTD/svg11.dtd">
<svg version="1.1" id="Layer_1" xmlns="http://www.w3.org/2000/svg" xmlns:xlink="http://www.w3.org/1999/xlink" x="0px" y="0px"
	 width="135px" height="45px" viewBox="0 0 135 45" enable-background="new 0 0 135 45" xml:space="preserve">
<g>
	<path fill="#414042" d="M19.037,27.784l-2.338,2.208c-1.59-1.665-3.379-2.497-5.365-2.497c-1.678,0-3.091,0.567-4.241,1.705
		c-1.147,1.135-1.723,2.537-1.723,4.202c0,1.159,0.254,2.189,0.762,3.092c0.51,0.899,1.229,1.605,2.16,2.117
		c0.93,0.514,1.963,0.773,3.101,0.773c0.969,0,1.855-0.183,2.659-0.541c0.803-0.361,1.686-1.012,2.647-1.962l2.267,2.345
		c-1.298,1.253-2.524,2.123-3.676,2.609c-1.155,0.485-2.472,0.729-3.952,0.729c-2.729,0-4.963-0.859-6.702-2.575
		c-1.738-1.716-2.607-3.913-2.607-6.592c0-1.735,0.395-3.276,1.186-4.626c0.793-1.349,1.927-2.433,3.402-3.252
		c1.478-0.821,3.066-1.231,4.77-1.231c1.448,0,2.843,0.303,4.184,0.91S18.065,26.665,19.037,27.784z"/>
	<path fill="#414042" d="M21.496,24.288h3.54c1.94,0,3.322,0.18,4.145,0.541c0.822,0.358,1.484,0.958,1.985,1.796
		c0.5,0.835,0.752,1.825,0.752,2.969c0,1.199-0.277,2.205-0.831,3.011c-0.553,0.809-1.385,1.419-2.5,1.834l4.16,8.126h-3.652
		l-3.949-7.741h-0.307v7.741h-3.342V24.288z M24.838,31.433h1.048c1.063,0,1.795-0.147,2.195-0.437
		c0.4-0.292,0.601-0.773,0.601-1.445c0-0.398-0.098-0.747-0.298-1.041c-0.197-0.295-0.463-0.506-0.795-0.635
		c-0.334-0.131-0.946-0.195-1.833-0.195h-0.917V31.433z"/>
	<path fill="#414042" d="M35.206,24.288h9.585v3.405h-6.266v3.306h6.266v3.34h-6.266v4.811h6.266v3.415h-9.585V24.288z"/>
	<path fill="#414042" d="M54.022,24.288h3.39l6.753,18.276h-3.474l-1.372-3.764h-7.167l-1.428,3.764H47.25L54.022,24.288z
		 M55.738,29.133l-2.355,6.274h4.697L55.738,29.133z"/>
	<path fill="#414042" d="M66.624,24.288h9.707v3.429H73.13v14.848h-3.389V27.717h-3.117V24.288z"/>
	<path fill="#414042" d="M78.788,24.288h3.319v18.276h-3.319V24.288z"/>
	<path fill="#414042" d="M105.303,24.288h3.204l7.513,12.029V24.288h3.344v18.276h-3.218l-7.503-11.988v11.988h-3.34V24.288z"/>
	<path fill="#414042" d="M132.553,27.094l-2.476,2.162c-0.87-1.198-1.753-1.798-2.655-1.798c-0.438,0-0.797,0.117-1.076,0.348
		c-0.278,0.235-0.417,0.495-0.417,0.789c0,0.289,0.099,0.568,0.297,0.827c0.273,0.346,1.09,1.093,2.452,2.235
		c1.273,1.055,2.047,1.724,2.32,1.999c0.678,0.678,1.159,1.328,1.44,1.946c0.283,0.618,0.425,1.296,0.425,2.029
		c0,1.426-0.497,2.604-1.493,3.535c-0.996,0.929-2.297,1.397-3.895,1.397c-1.253,0-2.342-0.305-3.271-0.913
		c-0.927-0.607-1.722-1.561-2.383-2.861l2.809-1.678c0.846,1.536,1.817,2.305,2.92,2.305c0.57,0,1.055-0.166,1.442-0.498
		c0.391-0.329,0.589-0.712,0.589-1.146c0-0.396-0.149-0.79-0.444-1.184c-0.294-0.396-0.944-0.998-1.951-1.809
		c-1.911-1.548-3.145-2.741-3.704-3.579c-0.56-0.841-0.835-1.678-0.835-2.514c0-1.207,0.463-2.242,1.392-3.104
		c0.926-0.864,2.071-1.296,3.437-1.296c0.875,0,1.71,0.201,2.5,0.605C130.771,25.295,131.63,26.028,132.553,27.094z"/>
	<path fill="#414042" d="M4.1,2.53h3.183c1.279,0,2.263,0.161,2.95,0.478c0.688,0.32,1.231,0.81,1.63,1.471
		c0.397,0.658,0.598,1.395,0.598,2.2c0,0.752-0.175,1.438-0.524,2.056c-0.35,0.621-0.863,1.12-1.539,1.505
		c0.839,0.298,1.484,0.649,1.937,1.053c0.451,0.403,0.803,0.892,1.055,1.463c0.25,0.574,0.377,1.194,0.377,1.861
		c0,1.36-0.475,2.511-1.421,3.45c-0.946,0.942-2.218,1.412-3.812,1.412H4.1V2.53z M5.679,4.191v5.427h0.925
		c1.12,0,1.945-0.111,2.473-0.331c0.529-0.218,0.945-0.563,1.254-1.036c0.308-0.472,0.46-0.997,0.46-1.572
		c0-0.776-0.258-1.384-0.775-1.827C9.5,4.412,8.677,4.191,7.548,4.191H5.679z M5.679,11.323v6.499H7.68
		c1.179,0,2.043-0.122,2.594-0.364c0.548-0.243,0.99-0.62,1.323-1.135c0.333-0.515,0.5-1.07,0.5-1.67
		c0-0.753-0.235-1.411-0.704-1.97c-0.469-0.562-1.112-0.945-1.933-1.152c-0.549-0.138-1.507-0.208-2.868-0.208H5.679z"/>
	<path fill="#414042" d="M25.495,2.53h9.248v1.66h-7.635v5.312h7.569v1.661h-7.569v6.66h7.569v1.658h-9.182V2.53z"/>
	<path fill="#414042" d="M46.473,19.596V2.417h0.352l10.738,13.167V2.417h1.591v17.179h-0.362L48.141,6.587v13.009H46.473z"/>
	<path fill="#414042" d="M85.083,5.647l-1.252,1.185c-0.899-0.886-1.885-1.555-2.955-2.014c-1.073-0.457-2.117-0.685-3.132-0.685
		c-1.266,0-2.471,0.311-3.613,0.933c-1.148,0.623-2.034,1.464-2.663,2.528c-0.627,1.064-0.942,2.189-0.942,3.374
		c0,1.214,0.324,2.368,0.977,3.461c0.648,1.095,1.55,1.953,2.698,2.578s2.406,0.939,3.774,0.939c1.659,0,3.062-0.47,4.21-1.405
		c1.151-0.937,1.831-2.15,2.042-3.642H79.08V11.34h6.959c-0.017,2.492-0.758,4.474-2.225,5.939c-1.467,1.467-3.429,2.2-5.883,2.2
		c-2.987,0-5.348-1.019-7.088-3.05c-1.338-1.566-2.009-3.377-2.009-5.43c0-1.53,0.384-2.951,1.152-4.268
		c0.769-1.315,1.822-2.345,3.158-3.089c1.339-0.741,2.854-1.112,4.542-1.112c1.368,0,2.655,0.246,3.862,0.74
		C82.755,3.764,83.933,4.557,85.083,5.647z"/>
	<path fill="#414042" d="M104.759,2.53l7.527,16.95h-1.743l-2.537-5.577h-6.951l-2.516,5.577h-1.796l7.623-16.95H104.759z
		 M104.556,6.13l-2.765,6.137h5.519L104.556,6.13z"/>
	<path fill="#414042" d="M124.018,2.53h1.611v15.314h6.21v1.635h-7.821V2.53z"/>
	<g>
		<polygon fill="#FFFFFF" points="99.443,29.682 97.655,26.585 89.757,26.585 88.218,29.243 92.278,29.243 96.119,29.243 
			93.707,33.418 97.283,33.418 		"/>
		<polygon fill="#FFFFFF" points="87.594,30.321 85.806,33.416 89.757,40.26 92.821,40.26 90.795,36.751 88.873,33.418 
			93.707,33.418 91.911,30.321 		"/>
		<polygon fill="#FFFFFF" points="98.041,34.272 96.119,37.6 93.707,33.418 91.911,36.523 94.079,40.26 97.655,40.26 
			101.604,33.416 100.067,30.764 		"/>
		<path fill="#BD1B21" d="M93.705,24.288c-5.051,0-9.139,4.09-9.139,9.139c0,5.045,4.088,9.138,9.139,9.138
			c5.042,0,9.138-4.093,9.138-9.138C102.843,28.378,98.747,24.288,93.705,24.288z M97.655,40.26h-3.576l-2.168-3.736l1.796-3.105
			h-4.834l1.922,3.333l2.026,3.509h-3.064l-3.951-6.844l1.788-3.095h4.317l1.796,3.097l2.412-4.175h-3.841h-4.061l1.539-2.658h7.898
			l1.788,3.097l-2.16,3.736h-3.576l2.412,4.182l1.922-3.327l2.026-3.509l1.536,2.652L97.655,40.26z"/>
	</g>
</g>
</svg>
